<?xml version="1.0" standalone="no"?>
<!DOCTYPE svg PUBLIC "-//W3C//DTD SVG 20010904//EN"
 "http://www.w3.org/TR/2001/REC-SVG-20010904/DTD/svg10.dtd">
<svg version="1.0" xmlns="http://www.w3.org/2000/svg"
 width="500.000000pt" height="500.000000pt" viewBox="0 0 500.000000 500.000000"
 preserveAspectRatio="xMidYMid meet">

<g transform="translate(0.000000,500.000000) scale(0.100000,-0.100000)"
fill="#000000" stroke="none">
<path d="M2070 3251 c0 -24 9 -88 20 -143 l21 -100 -30 -77 c-16 -43 -33 -102
-37 -132 -8 -61 -14 -74 -113 -249 -112 -196 -123 -265 -54 -341 19 -21 32
-42 29 -47 -12 -20 -26 -149 -19 -170 6 -15 8 -5 9 36 1 31 6 76 13 98 l11 42
53 -20 c41 -16 90 -22 232 -28 99 -5 201 -14 227 -20 118 -30 142 36 47 128
-101 97 -258 146 -393 123 -36 -6 -76 -16 -88 -22 -22 -9 -22 -9 2 -4 105 22
166 26 228 16 116 -20 251 -101 288 -173 23 -44 12 -43 -25 3 -18 22 -36 38
-39 34 -4 -3 -2 -9 4 -13 18 -13 54 -65 54 -78 0 -26 -25 -14 -68 33 l-44 48
33 -44 33 -44 -44 7 c-25 4 -124 11 -220 16 -184 9 -222 17 -282 59 -99 70
-95 160 15 342 24 41 55 94 68 119 l23 45 6 -30 c4 -22 8 -7 14 54 9 93 32
177 76 277 31 68 39 97 16 55 -7 -13 -16 -19 -19 -14 -8 12 -37 188 -37 222
l0 24 108 -6 c59 -4 120 -10 137 -15 28 -8 29 -9 10 -21 -16 -10 -17 -11 -2
-7 140 44 208 45 306 7 61 -25 62 -25 55 -7 -3 9 5 15 27 20 37 7 189 8 189 1
0 -13 -84 -205 -89 -205 -4 0 -15 22 -26 50 -10 27 -21 47 -23 45 -3 -2 9 -39
26 -82 30 -76 64 -193 56 -193 -2 0 -13 9 -24 20 -30 30 -82 26 -116 -9 -26
-28 -28 -28 -63 -14 -27 12 -43 13 -69 5 -30 -9 -34 -8 -41 11 -21 54 -75 76
-127 51 -49 -23 -71 -72 -50 -112 16 -32 54 -52 96 -52 44 0 59 9 80 50 14 28
27 39 51 44 41 8 95 -18 103 -49 4 -14 16 -30 27 -36 28 -15 86 -14 104 1 12
10 15 9 15 -8 0 -12 -8 -23 -19 -27 -11 -3 -25 -13 -33 -22 -12 -15 -11 -15
18 0 32 16 44 14 44 -9 0 -7 -12 -15 -27 -17 -27 -4 -27 -4 3 -6 18 0 34 -8
38 -16 4 -12 0 -14 -22 -10 -26 5 -26 5 -4 -6 33 -18 27 -47 -21 -94 -31 -32
-58 -48 -102 -60 -110 -32 -389 -5 -437 43 -10 10 62 62 150 106 30 15 52 30
49 32 -7 7 -80 -31 -159 -83 -66 -43 -68 -44 -93 -27 -14 9 -25 20 -25 24 0 8
113 60 173 80 21 6 36 14 34 16 -11 12 -222 -77 -262 -110 -19 -16 -18 -16 10
-2 28 13 32 12 59 -10 28 -25 28 -25 10 -47 -19 -22 -19 -22 2 -4 21 17 24 17
100 -9 63 -21 104 -28 201 -32 136 -5 193 4 263 46 25 14 55 25 68 23 13 -1
34 5 48 14 14 9 27 15 28 13 2 -2 8 -12 14 -23 6 -11 12 -15 12 -9 0 6 -18 36
-40 67 -69 95 -97 187 -40 125 l31 -33 -26 39 c-31 48 -40 79 -28 101 8 13 16
6 46 -39 21 -31 40 -56 43 -56 6 0 4 3 -43 77 -27 43 -30 53 -18 63 11 9 20 5
44 -23 17 -18 67 -69 112 -113 85 -83 98 -101 110 -149 7 -29 7 -29 8 -4 1 38
-37 89 -159 209 -92 91 -110 105 -122 94 -11 -12 -16 -3 -32 57 l-18 72 25 56
c72 157 76 169 60 175 -25 10 -159 7 -212 -5 -39 -8 -60 -7 -102 5 -60 18
-137 20 -189 6 -24 -7 -47 -6 -70 0 -19 6 -88 13 -152 17 l-118 6 0 -42z m836
-638 c10 -15 10 -21 -3 -35 -17 -19 -53 -25 -53 -8 0 17 23 60 33 60 5 0 16
-8 23 -17z"/>
<path d="M2629 2727 c-12 -26 -22 -30 -64 -28 -18 1 -18 0 3 -11 19 -9 27 -8
51 10 25 18 31 19 41 7 13 -16 56 -20 64 -7 3 5 -8 6 -24 4 -23 -3 -31 1 -43
24 l-15 29 -13 -28z"/>
<path d="M2265 2730 c-81 -9 -152 -26 -160 -40 -3 -5 12 -3 35 5 52 18 240 39
288 31 27 -4 31 -3 17 4 -23 10 -82 10 -180 0z"/>
<path d="M3147 2508 c-13 -109 -73 -203 -182 -286 -25 -19 -26 -21 -5 -11 51
25 137 119 164 179 24 54 46 160 34 160 -3 0 -8 -19 -11 -42z"/>
<path d="M2830 2391 c0 -7 25 -65 54 -130 30 -65 63 -145 72 -179 10 -34 19
-60 21 -58 10 10 -34 140 -84 250 -61 131 -63 135 -63 117z"/>
<path d="M2740 1790 l0 -100 51 0 c45 0 55 4 85 34 73 73 22 166 -91 166 l-45
0 0 -100z m125 55 c54 -53 13 -135 -66 -135 l-39 0 0 80 0 80 40 0 c30 0 47
-7 65 -25z"/>
<path d="M2132 1780 c-22 -55 -36 -100 -32 -100 5 0 14 9 20 20 9 16 21 20 65
20 41 0 55 -4 55 -14 0 -15 18 -31 26 -23 5 5 -82 197 -89 197 -3 0 -23 -45
-45 -100z m68 14 c11 -25 20 -48 20 -50 0 -2 -18 -4 -41 -4 -29 0 -40 4 -36
13 2 6 10 29 18 50 7 20 15 37 16 37 2 0 13 -21 23 -46z"/>
<path d="M2430 1861 c-14 -27 -13 -56 3 -69 7 -6 37 -12 66 -14 57 -3 80 -21
68 -52 -9 -22 -115 -23 -123 -1 -7 16 -24 21 -24 6 0 -25 34 -41 85 -41 76 0
107 37 71 85 -10 14 -27 19 -63 21 -59 1 -73 8 -73 34 0 23 7 28 57 36 34 5
45 2 62 -15 23 -23 31 -26 31 -12 0 26 -34 41 -90 41 -48 0 -61 -4 -70 -19z"/>
<path d="M1680 1536 c-23 -29 -8 -57 40 -75 57 -21 62 -50 11 -65 -28 -8 -36
-7 -46 8 -8 11 -15 13 -20 7 -12 -20 6 -31 50 -31 82 0 94 68 17 94 -48 17
-61 34 -38 52 26 19 53 18 64 -2 6 -11 11 -13 16 -5 4 6 4 16 1 21 -9 15 -81
12 -95 -4z"/>
<path d="M1978 1543 c8 -3 12 -29 12 -78 0 -49 -4 -75 -12 -78 -7 -3 17 -6 55
-6 53 -1 67 2 67 14 0 8 -4 15 -10 15 -5 0 -10 -4 -10 -10 0 -5 -16 -10 -35
-10 -33 0 -35 2 -35 34 0 32 3 35 33 39 l32 4 -32 1 c-31 2 -33 5 -33 37 0 32
3 35 28 35 15 0 33 -5 40 -12 9 -9 12 -8 12 5 0 14 -10 17 -62 16 -35 0 -57
-3 -50 -6z"/>
<path d="M2288 1543 c8 -3 12 -29 12 -78 0 -49 -4 -75 -12 -78 -7 -3 17 -6 55
-6 53 -1 67 2 67 14 0 8 -4 15 -10 15 -5 0 -10 -4 -10 -10 0 -5 -16 -10 -35
-10 l-35 0 0 74 c0 50 4 76 13 79 6 3 -4 5 -23 5 -19 0 -29 -2 -22 -5z"/>
<path d="M2598 1538 c16 -16 16 -145 0 -151 -7 -3 15 -6 50 -6 57 -1 62 1 62
21 0 20 -1 21 -13 4 -9 -12 -23 -17 -42 -14 -29 3 -30 4 -33 66 -2 38 2 69 9
78 9 11 6 14 -17 14 -22 0 -25 -3 -16 -12z"/>
<path d="M2898 1541 c10 -6 13 -29 10 -85 l-3 -76 58 0 c44 0 57 3 57 15 0 8
-4 15 -10 15 -5 0 -10 -4 -10 -10 0 -5 -16 -10 -35 -10 -33 0 -35 2 -35 34 0
32 3 35 33 39 l32 4 -32 1 c-31 2 -33 5 -33 37 0 33 2 35 34 35 19 0 37 -6 39
-12 3 -8 6 -6 6 5 1 14 -8 17 -61 17 -38 0 -58 -4 -50 -9z"/>
<path d="M3208 1543 c8 -3 12 -29 12 -78 0 -49 -4 -75 -12 -78 -7 -3 3 -5 22
-5 19 0 29 2 23 5 -7 2 -13 18 -13 34 0 41 28 38 63 -6 15 -19 33 -35 38 -35
6 0 -1 14 -16 32 -23 27 -25 33 -12 42 26 20 30 53 8 75 -16 16 -33 21 -73 20
-29 0 -47 -3 -40 -6z m105 -20 c11 -7 8 -38 -5 -51 -7 -7 -25 -12 -40 -12 -26
0 -28 3 -28 41 0 41 0 41 33 34 17 -4 35 -9 40 -12z"/>
</g>
</svg>
