<?xml version="1.0" encoding="iso-8859-1"?>
<!-- Generator: Adobe Illustrator 19.1.0, SVG Export Plug-In . SVG Version: 6.00 Build 0)  -->
<svg version="1.1" id="Capa_1" xmlns="http://www.w3.org/2000/svg" xmlns:xlink="http://www.w3.org/1999/xlink" x="0px" y="0px"
	 viewBox="0 0 471.8 471.8" style="enable-background:new 0 0 471.8 471.8;" xml:space="preserve">
<g>
	<g>
		<path d="M26.9,82.5H317c5.7,33.2,34.7,58.5,69.4,58.5c38.9,0,70.5-31.6,70.5-70.5S425.3,0,386.4,0c-34.8,0-63.7,25.3-69.4,58.5
			H26.9c-6.6,0-12,5.4-12,12S20.3,82.5,26.9,82.5z M386.4,24c25.6,0,46.5,20.8,46.5,46.5S412.1,117,386.4,117s-46.5-20.9-46.5-46.5
			S360.8,24,386.4,24z"/>
		<path d="M303.9,235.3c0,6.6,5.4,12,12,12s12-5.4,12-12s-5.4-12-12-12C309.2,223.3,303.9,228.7,303.9,235.3z"/>
		<path d="M260.9,235.3c0,6.6,5.4,12,12,12s12-5.4,12-12s-5.4-12-12-12C266.2,223.3,260.9,228.7,260.9,235.3z"/>
		<path d="M346.9,235.3c0,6.6,5.4,12,12,12s12-5.4,12-12s-5.4-12-12-12S346.9,228.7,346.9,235.3z"/>
		<path d="M389.9,235.3c0,6.6,5.4,12,12,12s12-5.4,12-12s-5.4-12-12-12S389.9,228.7,389.9,235.3z"/>
		<path d="M174.9,235.3c0,6.6,5.4,12,12,12s12-5.4,12-12s-5.4-12-12-12S174.9,228.7,174.9,235.3z"/>
		<path d="M217.9,235.3c0,6.6,5.4,12,12,12s12-5.4,12-12s-5.4-12-12-12C223.2,223.3,217.9,228.7,217.9,235.3z"/>
		<path d="M85.4,305.8c38.9,0,70.5-31.6,70.5-70.5s-31.6-70.5-70.5-70.5s-70.5,31.6-70.5,70.5C14.9,274.1,46.5,305.8,85.4,305.8z
			 M85.4,188.8c25.6,0,46.5,20.8,46.5,46.5s-20.8,46.5-46.5,46.5s-46.5-20.9-46.5-46.5S59.7,188.8,85.4,188.8z"/>
		<path d="M386.4,330.8c-34.8,0-63.7,25.3-69.4,58.5H26.9c-6.6,0-12,5.4-12,12s5.4,12,12,12H317c5.7,33.2,34.7,58.5,69.4,58.5
			c38.9,0,70.5-31.6,70.5-70.5S425.3,330.8,386.4,330.8z M386.4,447.8c-25.6,0-46.5-20.8-46.5-46.5s20.8-46.5,46.5-46.5
			s46.5,20.8,46.5,46.5S412.1,447.8,386.4,447.8z"/>
	</g>
</g>
<g>
</g>
<g>
</g>
<g>
</g>
<g>
</g>
<g>
</g>
<g>
</g>
<g>
</g>
<g>
</g>
<g>
</g>
<g>
</g>
<g>
</g>
<g>
</g>
<g>
</g>
<g>
</g>
<g>
</g>
</svg>
